<svg xmlns="http://www.w3.org/2000/svg" version="1.1" xmlns:xlink="http://www.w3.org/1999/xlink" xmlns:svgjs="http://svgjs.dev/svgjs" viewBox="0 0 800 800"><rect width="100%" height="100%" fill="#f3f4f6"></rect><g fill="#00758e"><rect width="135" height="1" x="167.5" y="410.5" rx="0.5" transform="rotate(49, 235, 411)" opacity="0.20"></rect><rect width="107" height="1" x="22.5" y="340.5" rx="0.5" transform="rotate(49, 76, 341)" opacity="0.97"></rect><rect width="136" height="1" x="102" y="121.5" rx="0.5" transform="rotate(49, 170, 122)" opacity="0.40"></rect><rect width="233" height="1" x="343.5" y="164.5" rx="0.5" transform="rotate(49, 460, 165)" opacity="0.26"></rect><rect width="188" height="1" x="605" y="665.5" rx="0.5" transform="rotate(49, 699, 666)" opacity="0.37"></rect><rect width="143" height="1" x="73.5" y="705.5" rx="0.5" transform="rotate(49, 145, 706)" opacity="0.82"></rect><rect width="169" height="1" x="316.5" y="441.5" rx="0.5" transform="rotate(49, 401, 442)" opacity="0.16"></rect><rect width="111" height="1" x="640.5" y="190.5" rx="0.5" transform="rotate(49, 696, 191)" opacity="0.97"></rect><rect width="200" height="1" x="292" y="695.5" rx="0.5" transform="rotate(49, 392, 696)" opacity="0.87"></rect><rect width="173" height="1" x="515.5" y="499.5" rx="0.5" transform="rotate(49, 602, 500)" opacity="0.60"></rect><rect width="77" height="1" x="39.5" y="560.5" rx="0.5" transform="rotate(49, 78, 561)" opacity="0.67"></rect></g></svg>